<?xml version="1.0" encoding="UTF-8"?>
<svg width="328px" height="145px" viewBox="0 0 328 145" version="1.1" xmlns="http://www.w3.org/2000/svg" xmlns:xlink="http://www.w3.org/1999/xlink">
    <title>KVUE_overhang</title>
    <defs>
        <polygon id="path-1" points="0 0 59.3026131 0 59.3026131 59.3030017 0 59.3030017"></polygon>
    </defs>
    <g id="KVUE_overhang" stroke="none" stroke-width="1" fill="none" fill-rule="evenodd">
        <g id="Group-22" transform="translate(-0.000000, -0.000000)">
            <path d="M288.945505,112.196514 C277.125465,127.290143 258.753586,137.018443 238.14078,137.018443 C217.527196,137.018443 199.155317,127.290143 187.336054,112.196514 L177.50441,112.196514 C190.47211,131.937504 212.807572,145 238.14078,145 C263.47321,145 285.809449,131.937504 298.777149,112.196514 L288.945505,112.196514 Z" id="Fill-1" fill="#FFFFFF"></path>
            <path d="M187.335899,32.8034856 C199.155938,17.7098572 217.527817,7.98155728 238.140624,7.98155728 C258.753431,7.98155728 277.126087,17.7098572 288.94535,32.8034856 L298.776993,32.8034856 C285.809294,13.062496 263.473832,0 238.140624,0 C212.807416,0 190.471954,13.062496 177.504255,32.8034856 L187.335899,32.8034856 Z" id="Fill-3" fill="#FFFFFF"></path>
            <g id="Group-7" transform="translate(268.392451, 42.848344)">
                <mask id="mask-2" fill="white">
                    <use xlink:href="#path-1"></use>
                </mask>
                <g id="Clip-6"></g>
                <polygon id="Fill-5" fill="#FFFFFF" mask="url(#mask-2)" points="55.1855686 22.1862738 37.1167278 22.1862738 37.1167278 4.11743302 37.1167278 0 32.9992948 0 26.3029299 0 22.1862738 0 22.1862738 4.11743302 22.1862738 22.1862738 4.116656 22.1862738 0 22.1862738 0 26.3037069 0 33.0000718 0 37.1167278 4.116656 37.1167278 22.1862738 37.1167278 22.1862738 55.1855686 22.1862738 59.3030017 26.3029299 59.3030017 32.9992948 59.3030017 37.1167278 59.3030017 37.1167278 55.1855686 37.1167278 37.1167278 55.1855686 37.1167278 59.3030017 37.1167278 59.3030017 33.0000718 59.3030017 26.3037069 59.3030017 22.1862738"></polygon>
            </g>
            <path d="M209.218202,68.476975 C207.098489,68.476975 205.375834,70.2089543 205.375834,72.3372142 C205.375834,74.465474 207.098489,76.1982303 209.218202,76.1982303 C211.337138,76.1982303 213.059793,74.465474 213.059793,72.3372142 C213.059793,70.2089543 211.337138,68.476975 209.218202,68.476975" id="Fill-8" fill="#FFFFFF"></path>
            <path d="M226.42385,68.476975 C224.303361,68.476975 222.579929,70.2089543 222.579929,72.3372142 C222.579929,74.465474 224.303361,76.1982303 226.42385,76.1982303 C228.542009,76.1982303 230.264664,74.465474 230.264664,72.3372142 C230.264664,70.2089543 228.542009,68.476975 226.42385,68.476975" id="Fill-10" fill="#FFFFFF"></path>
            <path d="M243.431902,80.4822566 C238.960148,80.4822566 235.322914,76.828705 235.322914,72.3367479 C235.322914,67.8463449 238.960148,64.1912393 243.431902,64.1912393 C247.224541,64.1912393 250.540088,66.874292 251.352075,70.5822351 L246.854679,70.5822351 C246.195765,69.2830563 244.885708,68.4772858 243.431902,68.4772858 C241.31219,68.4772858 239.587981,70.2084881 239.587981,72.3367479 C239.587981,74.4657848 241.31219,76.1985411 243.431902,76.1985411 C244.839864,76.1985411 246.127387,75.4300676 246.803396,74.1883884 L251.328764,74.1883884 C250.482589,77.841163 247.175588,80.4822566 243.431902,80.4822566 L243.431902,80.4822566 Z M226.423695,80.4822566 C221.951163,80.4822566 218.314706,76.828705 218.314706,72.3367479 L218.314706,58.418752 L222.531598,58.418752 L222.531598,65.9232186 C222.531598,65.9232186 224.112835,64.1912393 226.608626,64.1912393 C230.90322,64.1912393 234.53113,67.921716 234.53113,72.3367479 C234.53113,76.828705 230.893118,80.4822566 226.423695,80.4822566 L226.423695,80.4822566 Z M217.326336,80.2079683 L213.10789,80.2079683 L213.10789,78.6337242 C213.10789,78.6337242 211.659523,80.4822566 208.874681,80.4822566 C205.293392,80.4822566 201.108358,77.239749 201.108358,72.3367479 C201.108358,67.8463449 204.747924,64.1912393 209.218124,64.1912393 C213.688325,64.1912393 217.326336,67.8463449 217.326336,72.3367479 L217.326336,80.2079683 Z M226.189812,46.1612495 C211.797833,46.1612495 200.130866,57.8802766 200.130866,72.3367479 C200.130866,86.7932192 211.797833,98.5138004 226.189812,98.5138004 C240.581013,98.5138004 252.248757,86.7932192 252.248757,72.3367479 C252.248757,57.8802766 240.581013,46.1612495 226.189812,46.1612495 L226.189812,46.1612495 Z" id="Fill-12" fill="#FFFFFF"></path>
            <polygon id="Fill-14" fill="#FFFFFF" points="18.3951895 79.9163524 15.5481855 83.7820307 15.5481855 98.0862059 -5.52106459e-15 98.0862059 -5.52106459e-15 46.5145608 15.5481855 46.5145608 15.5481855 65.8445064 29.0178404 46.5145608 48.0292074 46.5145608 28.6324381 70.4833203 48.875383 98.0862059 29.940164 98.0862059"></polygon>
            <polygon id="Fill-16" fill="#FFFFFF" points="45.8633397 46.5148716 63.4900557 46.5148716 74.5734799 81.2313823 85.6569041 46.5148716 103.28362 46.5148716 84.3491781 98.0857397 64.7977817 98.0857397"></polygon>
            <path d="M105.205503,46.5148716 L120.98291,46.5148716 L120.98291,76.3594621 C120.98291,81.3075303 123.524545,85.2516877 129.912432,85.2516877 C136.223395,85.2516877 138.763476,81.3075303 138.763476,76.3594621 L138.763476,46.5148716 L154.542437,46.5148716 L154.542437,76.8241205 C154.542437,89.6581725 147.229894,99.0142795 129.912432,99.0142795 C112.594971,99.0142795 105.205503,89.6581725 105.205503,76.9010456 L105.205503,46.5148716 Z" id="Fill-18" fill="#FFFFFF"></path>
            <polygon id="Fill-20" fill="#FFFFFF" points="157.696131 46.5148716 196.643519 46.5148716 196.643519 59.5051048 173.243539 59.5051048 173.243539 65.5347859 196.105044 65.5347859 196.105044 78.525019 173.243539 78.525019 173.243539 85.0970606 196.643519 85.0970606 196.643519 98.0857397 157.696131 98.0857397"></polygon>
        </g>
    </g>
</svg>