<svg width="792" height="792" viewBox="0 0 792 792" fill="none" xmlns="http://www.w3.org/2000/svg">
<path d="M149.8 678.12C178.961 678.12 202.6 654.481 202.6 625.32C202.6 596.159 178.961 572.52 149.8 572.52C120.639 572.52 97 596.159 97 625.32C97 654.481 120.639 678.12 149.8 678.12Z" fill="#1E6BB8"/>
<path d="M395.56 125.162C424.721 125.162 448.36 101.522 448.36 72.3615C448.36 43.2009 424.721 19.5615 395.56 19.5615C366.4 19.5615 342.76 43.2009 342.76 72.3615C342.76 101.522 366.4 125.162 395.56 125.162Z" fill="#1E6BB8"/>
<path d="M641.321 678.12C670.482 678.12 694.121 654.481 694.121 625.32C694.121 596.159 670.482 572.52 641.321 572.52C612.16 572.52 588.521 596.159 588.521 625.32C588.521 654.481 612.16 678.12 641.321 678.12Z" fill="#1E6BB8"/>
<path d="M149.8 625.32L395.56 72.36" stroke="#1E6BB8" stroke-width="38.4" stroke-linecap="round"/>
<path d="M641.321 625.32L395.561 72.36" stroke="#1E6BB8" stroke-width="38.4" stroke-linecap="round"/>
<path d="M174.378 177.001C198.237 177.001 217.578 157.66 217.578 133.801C217.578 109.942 198.237 90.601 174.378 90.601C150.52 90.601 131.178 109.942 131.178 133.801C131.178 157.66 150.52 177.001 174.378 177.001Z" fill="#1E6BB8"/>
<path d="M395.563 791.4C419.421 791.4 438.763 772.059 438.763 748.2C438.763 724.342 419.421 705 395.563 705C371.704 705 352.363 724.342 352.363 748.2C352.363 772.059 371.704 791.4 395.563 791.4Z" fill="#1E6BB8"/>
<path d="M616.743 177.001C640.602 177.001 659.943 157.66 659.943 133.801C659.943 109.942 640.602 90.601 616.743 90.601C592.884 90.601 573.543 109.942 573.543 133.801C573.543 157.66 592.884 177.001 616.743 177.001Z" fill="#1E6BB8"/>
<path d="M174.376 133.801L395.56 748.201L616.745 133.801" stroke="#1E6BB8" stroke-width="24" stroke-linecap="round"/>
<path d="M395.559 135.72C430.552 135.72 458.919 107.353 458.919 72.36C458.919 37.3672 430.552 9 395.559 9C360.566 9 332.199 37.3672 332.199 72.36C332.199 107.353 360.566 135.72 395.559 135.72Z" fill="#1E6BB8" stroke="#1E6BB8" stroke-width="14.4"/>
</svg>
