<?xml version="1.0" encoding="UTF-8"?>
<svg width="536px" height="84px" viewBox="0 0 536 84" version="1.1" xmlns="http://www.w3.org/2000/svg" xmlns:xlink="http://www.w3.org/1999/xlink">
    <!-- Generator: Sketch 58 (84663) - https://sketch.com -->
    <title>waypoint_logo</title>
    <desc>Created with Sketch.</desc>
    <defs>
        <polygon id="path-1" points="0.9192 0.2624 43.2172 0.2624 43.2172 62 0.9192 62"></polygon>
        <polygon id="path-3" points="0 84 535.808 84 535.808 0.754 0 0.754"></polygon>
        <polygon id="path-5" points="0 84 535.808 84 535.808 0.754 0 0.754"></polygon>
        <polygon id="path-7" points="0 84 535.808 84 535.808 0.754 0 0.754"></polygon>
    </defs>
    <g id="Page-1" stroke="none" stroke-width="1" fill="none" fill-rule="evenodd">
        <g id="blog_home_desktop" transform="translate(-201.000000, -219.000000)">
            <g id="waypoint_logo" transform="translate(201.000000, 218.000000)">
                <g>
                    <polygon id="Fill-1" fill="#323232" points="77.1273 0.9997 60.9273 50.4977 45.9883 0.9997 39.7783 0.9997 24.7493 50.4977 8.6403 0.9997 0.0003 0.9997 21.5093 63.9967 27.6293 63.9967 42.8383 15.2187 58.1373 63.9967 64.1673 63.9967 85.7663 0.9997"></polygon>
                    <g id="Group-15" transform="translate(0.000000, 0.246100)">
                        <path d="M114.7485,43.0518 C114.7485,35.0418 109.7985,28.2018 100.7085,28.2018 C92.1595,28.2018 86.8495,34.5018 86.8495,43.0518 C86.8495,51.5118 92.1595,57.8118 100.7085,57.8118 C109.7985,57.8118 114.7485,50.9718 114.7485,43.0518 M79.1095,43.0518 C79.1095,30.8128 86.9395,21.1828 99.8095,21.1828 C106.3785,21.1828 111.7785,24.4228 114.3885,29.5528 L114.3885,22.2628 L122.1275,22.2628 L122.1275,63.7508 L114.3885,63.7508 L114.3885,56.4608 C111.7785,61.5908 105.8385,64.8308 99.6285,64.8308 C86.3995,64.8308 79.1095,55.2908 79.1095,43.0518" id="Fill-2" fill="#323232"></path>
                        <g id="Group-6" transform="translate(124.000000, 22.000000)">
                            <mask id="mask-2" fill="white">
                                <use xlink:href="#path-1"></use>
                            </mask>
                            <g id="Clip-5"></g>
                            <path d="M2.1792,61.1904 L2.1792,53.8104 C3.7092,54.3504 5.5992,54.6204 7.0392,54.6204 C11.1792,54.6204 15.0482,52.4614 16.8482,47.1504 L18.2882,43.4614 L0.9192,0.2624 L9.0192,0.2624 L22.6982,34.8214 L34.8472,0.2624 L43.2172,0.2624 L24.3182,49.0414 C20.3582,59.2104 14.4182,62.0004 7.1292,62.0004 C5.0592,62.0004 4.0692,61.8204 2.1792,61.1904" id="Fill-4" fill="#323232" mask="url(#mask-2)"></path>
                        </g>
                        <path d="M205.2866,43.0518 C205.2866,34.4118 199.5266,28.2018 191.5166,28.2018 C183.2376,28.2018 177.4776,34.3228 177.4776,43.0518 C177.4776,51.6918 183.2376,57.8118 191.5166,57.8118 C199.5266,57.8118 205.2866,51.6918 205.2866,43.0518 M213.1166,43.0518 C213.1166,55.7408 204.5666,64.8308 192.5976,64.8308 C186.2076,64.8308 180.4476,61.5908 177.8376,56.4608 L177.8376,82.9198 L170.0076,82.9198 L170.0076,22.2628 L177.8376,22.2628 L177.8376,29.5528 C180.4476,24.4228 186.3876,21.1828 193.0466,21.1828 C204.9266,21.1828 213.1166,30.0928 213.1166,43.0518" id="Fill-7" fill="#323232"></path>
                        <path d="M250.2856,42.9619 C250.2856,34.6829 245.2456,28.2019 236.5156,28.2019 C227.7866,28.2019 222.6566,34.6829 222.6566,43.0519 C222.6566,51.3309 227.7866,57.8119 236.5156,57.8119 C245.2456,57.8119 250.2856,51.3309 250.2856,42.9619 M214.9166,42.9619 C214.9166,30.9019 223.0166,21.1829 236.5156,21.1829 C249.9256,21.1829 258.1156,30.9019 258.1156,42.9619 C258.1156,55.1109 249.9256,64.8309 236.5156,64.8309 C223.0166,64.8309 214.9166,55.1109 214.9166,42.9619" id="Fill-9" fill="#323232"></path>
                        <mask id="mask-4" fill="white">
                            <use xlink:href="#path-3"></use>
                        </mask>
                        <g id="Clip-12"></g>
                        <path d="M263.336,63.751 L271.166,63.751 L271.166,22.263 L263.336,22.263 L263.336,63.751 Z M260.907,8.854 C260.907,5.253 263.517,2.464 267.296,2.464 C270.986,2.464 273.596,5.253 273.596,8.854 C273.596,12.363 270.986,15.153 267.296,15.153 C263.517,15.153 260.907,12.363 260.907,8.854 L260.907,8.854 Z" id="Fill-11" fill="#323232" mask="url(#mask-4)"></path>
                        <path d="M279.7163,22.2627 L287.5463,22.2627 L287.5463,29.9117 C289.7963,24.6027 294.8353,21.1827 302.0353,21.1827 C312.2953,21.1827 317.5153,27.1217 317.5153,38.1927 L317.5153,63.7507 L309.6853,63.7507 L309.6853,41.6127 C309.6853,32.3417 306.6253,27.9327 299.2453,27.9327 C291.5053,27.9327 287.5463,33.3317 287.5463,41.7917 L287.5463,63.7507 L279.7163,63.7507 L279.7163,22.2627 Z" id="Fill-13" fill="#323232" mask="url(#mask-4)"></path>
                        <path d="M347.0366,56.7314 L347.0366,63.6614 C345.5066,64.0204 342.7166,64.2914 340.1066,64.2914 C335.1566,64.2914 327.3266,63.3904 327.3266,49.9814 L327.3266,28.8324 L319.8566,28.8324 L319.8566,22.2624 L327.3266,22.2624 L327.3266,9.1234 L335.1566,9.1234 L335.1566,22.2624 L345.5966,22.2624 L345.5966,28.8324 L335.1566,28.8324 L335.1566,48.2714 C335.1566,56.1914 337.8566,57.1814 341.8156,57.1814 C343.4356,57.1814 345.8666,57.0014 347.0366,56.7314" id="Fill-14" fill="#323232" mask="url(#mask-4)"></path>
                    </g>
                    <polygon id="Fill-16" fill="#323232" points="391.1792 11.5781 384.9092 11.5781 384.9092 8.9981 400.1792 8.9981 400.1792 11.5781 393.9092 11.5781 393.9092 29.9971 391.1792 29.9971"></polygon>
                    <g id="Group-29" transform="translate(0.000000, 0.246100)">
                        <path d="M413.5894,21.2314 L413.5894,29.7514 L410.9804,29.7514 L410.9804,22.3714 C410.9804,19.2814 409.9594,17.8114 407.4994,17.8114 C404.9194,17.8114 403.5994,19.6114 403.5994,22.4314 L403.5994,29.7514 L400.9894,29.7514 L400.9894,8.7524 L403.5994,8.7524 L403.5994,18.4714 C404.3494,16.7014 406.0294,15.5614 408.4294,15.5614 C411.8494,15.5614 413.5894,17.5414 413.5894,21.2314" id="Fill-17" fill="#323232"></path>
                        <path d="M425.979,21.5908 C425.979,19.1608 424.479,17.6608 421.959,17.6608 C419.439,17.6608 417.879,19.2508 417.759,21.5908 L425.979,21.5908 Z M428.468,23.6018 L417.759,23.6018 C417.82,26.2718 419.469,27.8308 422.109,27.8308 C423.939,27.8308 425.199,27.0808 425.769,25.7908 L428.378,25.7908 C427.899,28.3408 425.349,30.1118 422.109,30.1118 C417.849,30.1118 415.179,27.2908 415.179,22.8208 C415.179,18.4108 417.879,15.5618 421.99,15.5618 C425.919,15.5618 428.559,18.2318 428.559,22.0408 C428.559,22.6418 428.529,22.9418 428.468,23.6018 L428.468,23.6018 Z" id="Fill-19" fill="#323232"></path>
                        <path d="M446.8892,22.8213 C446.8892,20.0613 445.2082,17.9013 442.2992,17.9013 C439.3892,17.9013 437.6792,20.0613 437.6792,22.8513 C437.6792,25.6113 439.3892,27.7713 442.2992,27.7713 C445.2082,27.7713 446.8892,25.6113 446.8892,22.8213 M435.0992,22.8213 C435.0992,18.8013 437.7992,15.5613 442.2992,15.5613 C446.7692,15.5613 449.4992,18.8013 449.4992,22.8213 C449.4992,26.8713 446.7692,30.1113 442.2992,30.1113 C437.7992,30.1113 435.0992,26.8713 435.0992,22.8213" id="Fill-21" fill="#323232"></path>
                        <mask id="mask-6" fill="white">
                            <use xlink:href="#path-5"></use>
                        </mask>
                        <g id="Clip-24"></g>
                        <path d="M472.689,29.751 L475.298,29.751 L475.298,15.922 L472.689,15.922 L472.689,29.751 Z M476.109,11.452 C476.109,12.622 475.238,13.552 474.008,13.552 C472.749,13.552 471.878,12.622 471.878,11.452 C471.878,10.252 472.749,9.322 474.008,9.322 C475.238,9.322 476.109,10.252 476.109,11.452 L476.109,11.452 Z M467.888,8.572 C468.819,8.572 469.539,8.691 469.989,8.872 L469.989,11.122 C469.539,11.002 469.088,10.912 468.579,10.912 C467.499,10.912 466.089,11.122 466.089,13.462 L466.089,15.922 L469.989,15.922 L469.989,18.111 L466.089,18.111 L466.089,29.751 L463.479,29.751 L463.479,18.111 L460.539,18.111 L460.539,15.922 L463.479,15.922 L463.479,13.521 C463.479,9.202 466.388,8.572 467.888,8.572 L467.888,8.572 Z M456.669,8.572 C457.599,8.572 458.319,8.691 458.769,8.872 L458.769,11.122 C458.319,11.002 457.869,10.912 457.359,10.912 C456.279,10.912 454.869,11.122 454.869,13.462 L454.869,15.922 L458.769,15.922 L458.769,18.111 L454.869,18.111 L454.869,29.751 L452.259,29.751 L452.259,18.111 L449.32,18.111 L449.32,15.922 L452.259,15.922 L452.259,13.521 C452.259,9.202 455.169,8.572 456.669,8.572 L456.669,8.572 Z" id="Fill-23" fill="#323232" mask="url(#mask-6)"></path>
                        <path d="M477.0093,22.8516 C477.0093,18.5616 479.6193,15.5916 483.8793,15.5916 C487.6293,15.5916 489.9993,17.6316 490.3293,20.7216 L487.7193,20.7216 C487.3593,18.8916 486.0383,17.9316 483.8793,17.9316 C481.2093,17.9316 479.5893,19.7616 479.5893,22.8516 C479.5893,25.9116 481.2093,27.7716 483.8793,27.7716 C486.0383,27.7716 487.3593,26.8116 487.7193,25.0716 L490.3293,25.0716 C489.9993,28.1006 487.6293,30.1116 483.8793,30.1116 C479.6193,30.1116 477.0093,27.1406 477.0093,22.8516" id="Fill-25" fill="#323232" mask="url(#mask-6)"></path>
                        <path d="M492.069,29.751 L494.679,29.751 L494.679,15.922 L492.069,15.922 L492.069,29.751 Z M491.259,11.452 C491.259,10.252 492.128,9.322 493.388,9.322 C494.619,9.322 495.489,10.252 495.489,11.452 C495.489,12.622 494.619,13.552 493.388,13.552 C492.128,13.552 491.259,12.622 491.259,11.452 L491.259,11.452 Z" id="Fill-26" fill="#323232" mask="url(#mask-6)"></path>
                        <path d="M508.2983,22.8516 C508.2983,20.1816 506.6493,17.9016 503.6183,17.9016 C500.7693,17.9016 498.9993,20.0006 498.9993,22.8516 C498.9993,25.6706 500.7693,27.7716 503.6183,27.7716 C506.6493,27.7716 508.2983,25.4916 508.2983,22.8516 M496.4193,22.8516 C496.4193,18.7716 499.0283,15.5616 503.3193,15.5616 C505.5093,15.5616 507.3083,16.6416 508.1793,18.3516 L508.1793,15.9216 L510.7593,15.9216 L510.7593,29.7506 L508.1793,29.7506 L508.1793,27.3216 C507.3083,29.0316 505.3293,30.1116 503.2593,30.1116 C498.8493,30.1116 496.4193,26.9306 496.4193,22.8516" id="Fill-27" fill="#323232" mask="url(#mask-6)"></path>
                        <polygon id="Fill-28" fill="#323232" mask="url(#mask-6)" points="513.609 29.751 516.218 29.751 516.218 8.752 513.609 8.752"></polygon>
                    </g>
                    <polygon id="Fill-30" fill="#323232" points="384.8198 42.9981 387.6998 42.9981 393.0698 59.4971 398.0798 42.9981 400.1498 42.9981 405.1298 59.4971 410.5288 42.9981 413.4088 42.9981 406.2088 63.9971 404.1988 63.9971 399.0988 47.7371 394.0298 63.9971 391.9898 63.9971"></polygon>
                    <g id="Group-45" transform="translate(0.000000, 0.246100)">
                        <path d="M423.0698,56.8516 C423.0698,54.1816 421.4198,51.9016 418.3898,51.9016 C415.5398,51.9016 413.7688,54.0006 413.7688,56.8516 C413.7688,59.6706 415.5398,61.7716 418.3898,61.7716 C421.4198,61.7716 423.0698,59.4916 423.0698,56.8516 M411.1898,56.8516 C411.1898,52.7716 413.7998,49.5616 418.0898,49.5616 C420.2788,49.5616 422.0798,50.6416 422.9488,52.3516 L422.9488,49.9216 L425.5288,49.9216 L425.5288,63.7506 L422.9488,63.7506 L422.9488,61.3216 C422.0798,63.0316 420.0988,64.1116 418.0288,64.1116 C413.6198,64.1116 411.1898,60.9306 411.1898,56.8516" id="Fill-31" fill="#323232"></path>
                        <path d="M426.8804,70.2305 L426.8804,67.7705 C427.3904,67.9515 428.0204,68.0415 428.4994,68.0415 C429.8804,68.0415 431.1694,67.3215 431.7694,65.5505 L432.2494,64.3215 L426.4604,49.9215 L429.1594,49.9215 L433.7204,61.4415 L437.7694,49.9215 L440.5594,49.9215 L434.2594,66.1805 C432.9394,69.5705 430.9594,70.5015 428.5294,70.5015 C427.8394,70.5015 427.5094,70.4405 426.8804,70.2305" id="Fill-33" fill="#323232"></path>
                        <path d="M441.4897,49.9219 L444.0987,49.9219 L444.0987,52.4419 C444.6087,50.9419 446.0487,49.5619 448.2387,49.5619 C450.6697,49.5619 452.1377,50.7009 452.6787,52.5309 C453.2787,50.8819 454.9587,49.5619 457.1187,49.5619 C460.8387,49.5619 462.0977,51.9619 462.0977,54.9909 L462.0977,63.7509 L459.4877,63.7509 L459.4877,55.5009 C459.4877,52.8919 458.3487,51.8119 456.4887,51.8119 C454.4487,51.8119 453.0987,53.1919 453.0987,56.5519 L453.0987,63.7509 L450.4887,63.7509 L450.4887,55.6819 C450.4887,52.7119 449.2287,51.8119 447.5187,51.8119 C445.4197,51.8119 444.0987,53.3119 444.0987,56.5519 L444.0987,63.7509 L441.4897,63.7509 L441.4897,49.9219 Z" id="Fill-35" fill="#323232"></path>
                        <path d="M475.478,56.8213 C475.478,54.0613 473.798,51.9013 470.888,51.9013 C467.978,51.9013 466.269,54.0613 466.269,56.8513 C466.269,59.6113 467.978,61.7713 470.888,61.7713 C473.798,61.7713 475.478,59.6113 475.478,56.8213 M463.689,56.8213 C463.689,52.8013 466.388,49.5613 470.888,49.5613 C475.359,49.5613 478.088,52.8013 478.088,56.8213 C478.088,60.8713 475.359,64.1113 470.888,64.1113 C466.388,64.1113 463.689,60.8713 463.689,56.8213" id="Fill-37" fill="#323232"></path>
                        <path d="M497.5278,56.8516 C497.5278,53.9716 495.6078,51.9016 492.9378,51.9016 C490.1778,51.9016 488.2578,53.9416 488.2578,56.8516 C488.2578,59.7316 490.1778,61.7716 492.9378,61.7716 C495.6078,61.7716 497.5278,59.7316 497.5278,56.8516 M500.1378,56.8516 C500.1378,61.0806 497.2888,64.1116 493.2988,64.1116 C491.1688,64.1116 489.2488,63.0316 488.3788,61.3216 L488.3788,63.7506 L485.7688,63.7506 L485.7688,42.7516 L488.3788,42.7516 L488.3788,52.3516 C489.2488,50.6416 491.2278,49.5616 493.4488,49.5616 C497.4078,49.5616 500.1378,52.5316 500.1378,56.8516" id="Fill-39" fill="#323232"></path>
                        <mask id="mask-8" fill="white">
                            <use xlink:href="#path-7"></use>
                        </mask>
                        <g id="Clip-42"></g>
                        <polygon id="Fill-41" fill="#323232" mask="url(#mask-8)" points="501.848 63.751 504.458 63.751 504.458 42.752 501.848 42.752"></polygon>
                        <path d="M517.9878,56.8213 C517.9878,54.0613 516.3078,51.9013 513.3978,51.9013 C510.4878,51.9013 508.7778,54.0613 508.7778,56.8513 C508.7778,59.6113 510.4878,61.7713 513.3978,61.7713 C516.3078,61.7713 517.9878,59.6113 517.9878,56.8213 M506.1988,56.8213 C506.1988,52.8013 508.8978,49.5613 513.3978,49.5613 C517.8678,49.5613 520.5968,52.8013 520.5968,56.8213 C520.5968,60.8713 517.8678,64.1113 513.3978,64.1113 C508.8978,64.1113 506.1988,60.8713 506.1988,56.8213" id="Fill-43" fill="#323232" mask="url(#mask-8)"></path>
                        <path d="M533.3472,56.8516 C533.3472,54.1216 531.5772,51.9016 528.6672,51.9016 C525.9382,51.9016 524.0482,54.0006 524.0482,56.8516 C524.0482,59.6706 525.9382,61.7716 528.6672,61.7716 C531.5772,61.7716 533.3472,59.5506 533.3472,56.8516 L533.3472,56.8516 Z M535.8082,49.9216 L535.8082,63.3906 C535.8082,66.0316 534.9672,68.0106 533.4082,69.2106 C532.2382,70.0806 530.6482,70.5006 528.6382,70.5006 C526.7472,70.5006 524.9782,70.0506 523.7472,69.1506 C522.4882,68.2816 521.7382,66.9916 521.6782,65.4916 L524.4082,65.4916 C524.6182,67.1106 525.9972,68.3106 528.6382,68.3106 C531.6082,68.3106 533.2282,66.8716 533.2282,63.5716 L533.2282,61.3216 C532.3572,63.0606 530.3182,64.1116 528.3082,64.1116 C524.0772,64.1116 521.4682,60.9306 521.4682,56.8516 C521.4682,52.7416 524.2572,49.5616 528.3682,49.5616 C530.4972,49.5616 532.3572,50.6116 533.2282,52.3516 L533.2282,49.9216 L535.8082,49.9216 Z" id="Fill-44" fill="#323232" mask="url(#mask-8)"></path>
                    </g>
                </g>
            </g>
        </g>
    </g>
</svg>