<?xml version="1.0" encoding="utf-8"?>
<!-- Generator: Adobe Illustrator 23.0.6, SVG Export Plug-In . SVG Version: 6.00 Build 0)  -->
<svg version="1.1" id="Layer_1" xmlns="http://www.w3.org/2000/svg" xmlns:xlink="http://www.w3.org/1999/xlink" x="0px" y="0px"
	 viewBox="0 0 21.6 19.2" style="enable-background:new 0 0 21.6 19.2;" xml:space="preserve">
<style type="text/css">
	.st0{fill:#00E89D;}
</style>
<title>Asset 3</title>
<g>
	<g id="Design">
		<path class="st0" d="M0.1,10.1c0.2,0.4,0.6,0.7,1.1,0.7h19.2c0.7,0,1.2-0.5,1.2-1.2c0-0.7-0.5-1.2-1.2-1.2H4.1L10.4,2
			c0.5-0.5,0.5-1.2,0-1.7s-1.2-0.5-1.7,0L0.3,8.8C0,9.1-0.1,9.6,0.1,10.1z"/>
		<path class="st0" d="M5.6,12.4c-0.5-0.5-1.2-0.5-1.7,0c-0.5,0.5-0.5,1.2,0,1.7l4.8,4.8c0.5,0.5,1.2,0.5,1.7,0c0,0,0,0,0,0
			c0.5-0.5,0.5-1.2,0-1.7L5.6,12.4C5.6,12.4,5.6,12.4,5.6,12.4z"/>
	</g>
</g>
</svg>
