<?xml version="1.0" encoding="UTF-8"?>
<svg id="Layer_1" data-name="Layer 1" xmlns="http://www.w3.org/2000/svg" version="1.1" viewBox="0 0 306.17 70">
  <defs>
    <style>
      .cls-1 {
        fill: #77b143;
      }

      .cls-1, .cls-2, .cls-3 {
        stroke-width: 0px;
      }

      .cls-2 {
        fill: #000;
      }

      .cls-3 {
        fill: #fff;
      }
    </style>
  </defs>
  <g>
    <path class="cls-1" d="M116.01,32.26h-4.65l-7.28-19.25h5.22l4.46,13.65h.11l4.43-13.65h5.14l-7.42,19.25Z"/>
    <path class="cls-1" d="M130.45,32.26V13.02h4.67v19.25h-4.67Z"/>
    <path class="cls-1" d="M154.69,18.02c-.79-1.01-2.23-1.66-3.42-1.66s-2.69.41-2.69,1.93c0,1.28,1.14,1.68,2.96,2.25,2.61.85,5.98,1.96,5.98,5.79,0,4.43-3.56,6.42-7.36,6.42-2.75,0-5.52-1.01-7.2-2.77l3.04-3.1c.92,1.17,2.63,2.04,4.16,2.04,1.41,0,2.66-.54,2.66-2.09,0-1.47-1.46-1.93-3.99-2.75-2.45-.79-4.92-2.04-4.92-5.52,0-4.26,3.86-6.03,7.44-6.03,2.17,0,4.62.82,6.3,2.36l-2.96,3.13Z"/>
    <path class="cls-1" d="M174.05,32.78c-5.06,0-8.21-3.15-8.21-7.77v-11.99h4.62v11.61c0,2.07,1,3.97,3.61,3.97s3.62-1.9,3.62-3.97v-11.61h4.65v11.99c0,4.62-3.26,7.77-8.29,7.77Z"/>
    <path class="cls-1" d="M204.09,32.26l-1.5-3.78h-7.44l-1.42,3.78h-5.06l8.08-19.25h4.51l7.99,19.25h-5.16ZM198.92,18.15l-2.45,6.61h4.84l-2.39-6.61Z"/>
    <path class="cls-1" d="M216.3,32.26V13.02h4.68v15.2h7.45v4.05h-12.12Z"/>
    <g>
      <path class="cls-3" d="M115.93,58.72c-5.93,0-10.36-4.13-10.36-10.16s4.57-10.12,10.44-10.12c2.69,0,5.6.98,7.2,2.83l-3.15,3.16c-.87-1.2-2.42-1.77-3.89-1.77-3.24,0-5.54,2.5-5.54,5.9s2.26,5.9,5.46,5.9c1.82,0,3.26-.82,4.08-1.96l3.24,3.04c-1.68,1.96-4.24,3.18-7.48,3.18Z"/>
      <path class="cls-3" d="M116.01,38.44c-5.87,0-10.44,3.94-10.44,10.12s4.43,10.16,10.36,10.16c3.23,0,5.79-1.22,7.48-3.18l-3.24-3.04c-.81,1.14-2.25,1.96-4.08,1.96-3.21,0-5.46-2.39-5.46-5.9s2.31-5.9,5.54-5.9c1.47,0,3.02.57,3.89,1.77l3.15-3.16c-1.6-1.85-4.51-2.83-7.2-2.83h0Z"/>
    </g>
    <g>
      <path class="cls-3" d="M143.56,58.21l-1.5-3.78h-7.45l-1.41,3.78h-5.06l8.08-19.25h4.51l7.99,19.25h-5.16ZM138.39,44.1l-2.45,6.6h4.84l-2.39-6.6Z"/>
      <path class="cls-3" d="M140.73,38.96h-4.51l-8.07,19.25h5.06l1.41-3.78h7.45l1.5,3.78h5.16l-7.99-19.25h0ZM135.94,50.7l2.45-6.6,2.39,6.6h-4.84Z"/>
    </g>
    <g>
      <path class="cls-3" d="M162.71,50.95h-2.31v7.26h-4.64v-19.25h7.07c4.21,0,7.53,1.52,7.53,5.93s-3.62,6.07-7.64,6.07ZM162.44,42.71h-2.04v4.54h1.96c1.74,0,3.35-.51,3.35-2.34s-1.61-2.2-3.26-2.2Z"/>
      <path class="cls-3" d="M162.82,38.96h-7.07v19.25h4.64v-7.26h2.31c4.02,0,7.64-1.6,7.64-6.07s-3.32-5.93-7.53-5.93h0ZM160.4,47.25v-4.54h2.04c1.66,0,3.26.35,3.26,2.2s-1.61,2.34-3.35,2.34h-1.96Z"/>
    </g>
    <g>
      <path class="cls-3" d="M178.59,58.21v-19.25h4.68v19.25h-4.68Z"/>
      <polygon class="cls-3" points="183.27 38.96 178.59 38.96 178.59 58.21 183.27 58.21 183.27 38.96 183.27 38.96"/>
    </g>
    <g>
      <path class="cls-3" d="M200.91,42.93v15.28h-4.65v-15.28h-5.44v-3.97h15.52v3.97h-5.43Z"/>
      <polygon class="cls-3" points="206.34 38.96 190.82 38.96 190.82 42.93 196.26 42.93 196.26 58.21 200.91 58.21 200.91 42.93 206.34 42.93 206.34 38.96 206.34 38.96"/>
    </g>
    <g>
      <path class="cls-3" d="M225.32,58.21l-1.5-3.78h-7.45l-1.41,3.78h-5.05l8.07-19.25h4.52l7.99,19.25h-5.17ZM220.16,44.1l-2.45,6.6h4.84l-2.39-6.6Z"/>
      <path class="cls-3" d="M222.5,38.96h-4.52l-8.07,19.25h5.05l1.41-3.78h7.45l1.5,3.78h5.17l-7.99-19.25h0ZM217.71,50.7l2.45-6.6,2.39,6.6h-4.84Z"/>
    </g>
    <g>
      <path class="cls-3" d="M237.53,58.21v-19.25h4.68v15.2h7.45v4.05h-12.13Z"/>
      <polygon class="cls-3" points="242.2 38.96 237.53 38.96 237.53 58.21 249.65 58.21 249.65 54.16 242.2 54.16 242.2 38.96 242.2 38.96"/>
    </g>
    <g>
      <path class="cls-3" d="M257.26,58.21v-19.25h4.68v19.25h-4.68Z"/>
      <polygon class="cls-3" points="261.94 38.96 257.26 38.96 257.26 58.21 261.94 58.21 261.94 38.96 261.94 38.96"/>
    </g>
    <g>
      <path class="cls-3" d="M281.52,43.96c-.79-1.01-2.23-1.66-3.43-1.66s-2.69.41-2.69,1.93c0,1.28,1.14,1.69,2.97,2.25,2.61.84,5.98,1.96,5.98,5.79,0,4.43-3.56,6.42-7.37,6.42-2.75,0-5.51-1-7.2-2.77l3.05-3.1c.92,1.17,2.64,2.04,4.16,2.04,1.42,0,2.67-.54,2.67-2.09,0-1.47-1.47-1.93-4-2.75-2.45-.79-4.92-2.04-4.92-5.52,0-4.26,3.86-6.03,7.45-6.03,2.18,0,4.62.82,6.31,2.36l-2.96,3.13Z"/>
      <path class="cls-3" d="M278.17,38.47c-3.59,0-7.45,1.77-7.45,6.03,0,3.49,2.47,4.73,4.92,5.52,2.53.81,4,1.28,4,2.75,0,1.55-1.25,2.09-2.67,2.09-1.52,0-3.24-.87-4.16-2.04l-3.05,3.1c1.69,1.77,4.46,2.77,7.2,2.77,3.81,0,7.37-1.98,7.37-6.42,0-3.83-3.37-4.95-5.98-5.79-1.82-.57-2.96-.98-2.96-2.25,0-1.52,1.5-1.93,2.69-1.93s2.64.65,3.43,1.66l2.96-3.13c-1.69-1.55-4.13-2.36-6.31-2.36h0Z"/>
    </g>
    <g>
      <path class="cls-3" d="M300.74,42.93v15.28h-4.65v-15.28h-5.44v-3.97h15.53v3.97h-5.44Z"/>
      <polygon class="cls-3" points="306.17 38.96 290.65 38.96 290.65 42.93 296.09 42.93 296.09 58.21 300.74 58.21 300.74 42.93 306.17 42.93 306.17 38.96 306.17 38.96"/>
    </g>
  </g>
  <g>
    <g>
      <polygon class="cls-3" points="23.31 56.64 23.31 56.64 23.31 56.64 23.31 56.64"/>
      <rect class="cls-2" x="23.31" y="56.64" width="0" height="0"/>
    </g>
    <path class="cls-3" d="M95.04,31.62c-.69-1.64-1.55-3.22-2.55-4.69-.75-1.12-2.53-3.2-2.53-3.2-.11-.12-17.95-19.27-17.95-19.27-2.46-2.69-6.61-4.46-11.31-4.46s-9.02,1.84-11.46,4.62c-.15.15-.38.25-.65.25s-.5-.1-.65-.25c-2.44-2.79-6.66-4.63-11.46-4.63s-8.94,1.81-11.39,4.55L7.86,23.08c-1.16,1.19-2.21,2.48-3.14,3.85-1,1.48-1.85,3.06-2.55,4.69-1.44,3.41-2.17,7.03-2.17,10.75s.73,7.35,2.17,10.75c.69,1.64,1.55,3.22,2.55,4.69.99,1.46,2.12,2.84,3.37,4.09,1.25,1.25,2.62,2.38,4.09,3.37,1.48,1,3.06,1.85,4.69,2.55,3.41,1.44,7.03,2.17,10.75,2.17,1.19,0,2.38-.08,3.55-.23,2.48-.32,4.89-.97,7.21-1.95,1.64-.69,3.22-1.55,4.69-2.55,1.46-.99,2.84-2.12,4.09-3.37.5-.5.99-1.03,1.45-1.57.46.54.95,1.06,1.45,1.57,1.25,1.25,2.62,2.38,4.09,3.37,1.48,1,3.06,1.85,4.69,2.55,1.94.82,3.96,1.41,6.02,1.77,1.55.27,3.14.4,4.74.4,3.73,0,7.35-.73,10.75-2.17,1.64-.69,3.22-1.55,4.69-2.55,1.46-.99,2.84-2.12,4.09-3.37,1.25-1.25,2.38-2.62,3.37-4.09,1-1.48,1.85-3.06,2.55-4.69,1.44-3.41,2.17-7.03,2.17-10.75s-.73-7.35-2.17-10.75ZM48.49,36.02c-3.13,0-6.02.63-8.33,1.69,1.95-1.9,4.96-3.11,8.33-3.11s6.38,1.22,8.33,3.11c-2.31-1.06-5.2-1.69-8.33-1.69ZM69.59,66.25c-.46,0-.91-.01-1.37-.04,1.04-.99,2.14-2.51,2.68-3.85,3.46-.26,5.61-1.28,5.72-1.33.1-.05.18-.11.25-.19,6.09-7.13,2.08-12.98,1.94-13.27-.13-.25-.39-.42-.69-.43l-5.68-.26c-1.4-3.74-4.15-7.11-7.97-9.68-.09-.06-.19-.12-.29-.18l.06-5.44c0-.18-.07-.33-.18-.46-.04-.09-.1-.14-.19-.16-.12-.07-.26-.13-.42-.13-2.45-.03-4.61,1.2-5.79,3.05-.27.03-.53-.07-.53-.07h0c-2.85-1-5.97-1.55-9.23-1.55-13.31,0-24.14,9.14-24.74,20.61-.24,0-.47-.03-.71-.05.32-.97.13-1.85-.61-2.5-.71-.62-1.6-.69-2.52.05l-1.02.81c-.71-.53-1.29-1.16-1.79-1.86.61-.49,1.27-.69,1.92-.22l.72-.82c-1.11-.87-2.22-.47-3.13.29-.33-.58-.61-1.19-.83-1.83-.02.8.11,1.58.33,2.31-.05.05-.09.1-.14.15-1.29,1.47-1.42,2.91-.31,3.88,1.05.92,2.05.41,2.98-.33.74.6,1.6,1.06,2.55,1.38-.83.82-1.76,1.03-2.49.46,0,0-.01-.01-.03,0-.02,0-.02.02-.02.02l-.67.77s0,0,0,.02c0,.01,0,.02,0,.02,1.35.99,2.72.63,4.06-.9.04-.04.06-.08.09-.12.54.11,1.06.15,1.59.15l.19,2.14c.53,3.54,2.04,6.82,4.3,9.61-13.18,0-23.86-10.69-23.86-23.87s10.69-23.87,23.87-23.87c9.06,0,16.94,5.05,20.98,12.48,4.05-7.43,11.92-12.48,20.98-12.48,13.18,0,23.87,10.69,23.87,23.87s-10.69,23.87-23.87,23.87ZM21.55,52.65c-.89-.22-1.68-.53-2.37-.92.76-.65,1.45-1.11,2.06-.58.39.34.51.87.31,1.5ZM17.26,51.98l-.07.05c-.7.56-1.18.46-1.49.19-.63-.55-.48-1.54.17-2.3.34.76.81,1.45,1.39,2.06Z"/>
  </g>
</svg>