<?xml version="1.0" encoding="UTF-8"?>
<svg width="304px" height="145px" viewBox="0 0 304 145" version="1.1" xmlns="http://www.w3.org/2000/svg" xmlns:xlink="http://www.w3.org/1999/xlink">
    <title>WXIA__overhang</title>
    <defs>
        <polygon id="path-1" points="0 1.10420818e-14 24.6226723 1.10420818e-14 24.6226723 50.638226 0 50.638226"></polygon>
        <polygon id="path-3" points="0 145 304.43543 145 304.43543 0 0 0"></polygon>
    </defs>
    <g id="WXIA__overhang" stroke="none" stroke-width="1" fill="none" fill-rule="evenodd">
        <g id="Group-19" transform="translate(0.000000, 0.000000)">
            <path d="M164.07671,32.8036557 C175.895923,17.7100921 194.267723,7.98183387 214.881218,7.98183387 C235.494714,7.98183387 253.866514,17.7100921 265.686503,32.8036557 L275.517327,32.8036557 C262.549684,13.0627509 240.214317,0.000310806973 214.881218,0.000310806973 C189.548119,0.000310806973 167.212753,13.0627509 154.245886,32.8036557 L164.07671,32.8036557 Z" id="Fill-1" fill="#FFFFFF"></path>
            <path d="M265.686114,112.196422 C253.866125,127.289986 235.494325,137.018244 214.88083,137.018244 C194.268111,137.018244 175.896311,127.289986 164.076322,112.196422 L154.245497,112.196422 C167.213141,131.937327 189.548507,144.999767 214.88083,144.999767 C240.213929,144.999767 262.549295,131.937327 275.516939,112.196422 L265.686114,112.196422 Z" id="Fill-3" fill="#FFFFFF"></path>
            <polygon id="Fill-5" fill="#FFFFFF" points="300.318403 65.0343388 282.24964 65.0343388 282.24964 46.9655754 282.24964 42.8489371 278.132224 42.8489371 271.435888 42.8489371 267.318473 42.8489371 267.318473 46.9655754 267.318473 65.0343388 249.249709 65.0343388 245.133071 65.0343388 245.133071 69.1517542 245.133071 75.8480904 245.133071 79.9655058 249.249709 79.9655058 267.318473 79.9655058 267.318473 98.0342691 267.318473 102.150908 271.435888 102.150908 278.132224 102.150908 282.24964 102.150908 282.24964 98.0342691 282.24964 79.9655058 300.318403 79.9655058 304.435041 79.9655058 304.435041 75.8480904 304.435041 69.1517542 304.435041 65.0343388"></polygon>
            <g id="Group-9" transform="translate(0.000000, 47.181120)">
                <mask id="mask-2" fill="white">
                    <use xlink:href="#path-1"></use>
                </mask>
                <g id="Clip-8"></g>
                <polygon id="Fill-7" fill="#FFFFFF" mask="url(#mask-2)" points="24.6226723 50.638226 -0.00023310523 50.638226 -0.00023310523 4.86956825 24.6226723 1.10420818e-14"></polygon>
            </g>
            <polygon id="Fill-10" fill="#FFFFFF" points="52.6674848 97.8193461 28.0445794 97.8193461 28.0445794 52.0506883 52.6674848 47.1811201"></polygon>
            <polygon id="Fill-12" fill="#FFFFFF" points="121.415501 51.7163377 107.698812 51.7163377 107.698812 85.5064948 107.698812 97.7864783 121.415501 97.7864783 130.783223 97.7864783 133.232382 85.5064948 121.415501 85.5064948"></polygon>
            <mask id="mask-4" fill="white">
                <use xlink:href="#path-3"></use>
            </mask>
            <g id="Clip-15"></g>
            <polygon id="Fill-14" fill="#FFFFFF" mask="url(#mask-4)" points="139.316117 97.7860898 153.032806 97.7860898 153.032806 51.7159492 139.316117 51.7159492"></polygon>
            <polygon id="Fill-16" fill="#FFFFFF" mask="url(#mask-4)" points="178.178178 81.8180707 173.379318 51.7498272 159.661853 51.7498272 168.285969 97.8191907 175.624122 97.8191907 180.732234 97.8191907 188.070387 97.8191907 196.694504 51.7498272 182.977038 51.7498272"></polygon>
            <polygon id="Fill-17" fill="#FFFFFF" mask="url(#mask-4)" points="229.649289 63.9960881 229.649289 51.7161046 204.149131 51.7161046 202.889586 51.7161046 202.889586 97.7862452 204.149131 97.7862452 216.606275 97.7862452 229.649289 97.7862452 229.649289 85.5062617 216.606275 85.5062617 216.606275 80.7089561 226.72071 80.7089561 226.72071 68.8073801 216.606275 68.8073801 216.606275 63.9960881"></polygon>
            <path d="M78.881178,78.2963169 L81.6419209,61.0006859 L84.4018868,78.2963169 L78.881178,78.2963169 Z M70.8646891,51.7161046 L62.0533114,97.7862452 L75.7707772,97.7862452 L77.2393401,88.5840277 L86.0445017,88.5840277 L87.5130646,97.7862452 L101.229753,97.7862452 L92.4191527,51.7161046 L70.8646891,51.7161046 Z" id="Fill-18" fill="#FFFFFF" mask="url(#mask-4)"></path>
        </g>
    </g>
</svg>